<?xml version="1.0" standalone="no"?>
<!DOCTYPE svg PUBLIC "-//W3C//DTD SVG 20010904//EN"
 "http://www.w3.org/TR/2001/REC-SVG-20010904/DTD/svg10.dtd">
<svg version="1.0" xmlns="http://www.w3.org/2000/svg"
 width="1280.000000pt" height="1280.000000pt" viewBox="0 0 1280.000000 1280.000000"
 preserveAspectRatio="xMidYMid meet">
<metadata>
Created by potrace 1.15, written by Peter Selinger 2001-2017
</metadata>
<g transform="translate(0.000000,1280.000000) scale(0.100000,-0.100000)"
fill="#000000" stroke="none">
<path d="M6315 12794 c-11 -2 -40 -10 -65 -16 -25 -6 -76 -27 -115 -46 -66
-33 -237 -202 -3051 -3016 -2808 -2808 -2983 -2985 -3017 -3052 -88 -171 -88
-356 -1 -527 35 -68 189 -224 3018 -3053 3208 -3208 3002 -3008 3156 -3060 76
-26 244 -26 320 0 154 52 -52 -148 3156 3060 2629 2630 2984 2988 3013 3043
90 175 93 355 9 526 l-40 82 -2982 2981 c-3201 3201 -3009 3015 -3153 3060
-49 15 -211 27 -248 18z"/>
</g>
</svg>
