<?xml version="1.0" standalone="no"?>
<svg viewBox="0 0 200 200" xmlns="http://www.w3.org/2000/svg">
  <path fill="#FF0066" d="M31,-49.6C42.9,-40.6,57.2,-36.6,64.2,-27.5C71.2,-18.4,70.8,-4.1,69.1,10.1C67.3,24.4,64.2,38.7,55.3,46.7C46.4,54.7,31.8,56.5,17.2,62.5C2.6,68.6,-11.8,79.1,-25.5,78.8C-39.3,78.5,-52.2,67.5,-63,54.8C-73.7,42,-82.3,27.5,-86.2,11.4C-90.1,-4.8,-89.4,-22.7,-81.6,-36.2C-73.7,-49.7,-58.7,-58.9,-43.9,-66.6C-29.1,-74.3,-14.6,-80.7,-2.5,-76.7C9.5,-72.8,19.1,-58.7,31,-49.6Z" transform="translate(100 100)" />
</svg>
